HIERARCHY
ROOT Hips
{
 OFFSET 0.000000 0.000000 0.000000
 CHANNELS 6 Xposition Yposition Zposition Yrotation Xrotation Zrotation
 JOINT Chest
 {
  OFFSET 0.000000 9.585900 0.002600
  CHANNELS 3 Yrotation Xrotation Zrotation
  JOINT Chest2
  {
   OFFSET 0.000000 9.601200 -0.005300
   CHANNELS 3 Yrotation Xrotation Zrotation
   JOINT Chest3
   {
    OFFSET 0.000000 9.561800 0.000000
    CHANNELS 3 Yrotation Xrotation Zrotation
    JOINT Chest4
    {
     OFFSET 0.000000 9.552100 0.000000
     CHANNELS 3 Yrotation Xrotation Zrotation
     JOINT Neck
     {
      OFFSET 0.000000 14.453000 0.000000
      CHANNELS 3 Yrotation Xrotation Zrotation
      JOINT Head
      {
       OFFSET 0.000000 8.936500 -0.011300
       CHANNELS 3 Yrotation Xrotation Zrotation
       End Site
       {
        OFFSET 0.000000 17.073600 -0.006000
       }
      }
     }
     JOINT RightCollar
     {
      OFFSET -2.921100 9.558500 0.000000
      CHANNELS 3 Yrotation Xrotation Zrotation
      JOINT RightShoulder
      {
       OFFSET -13.519700 0.000000 0.000000
       CHANNELS 3 Yrotation Xrotation Zrotation
       JOINT RightElbow
       {
        OFFSET 0.000000 -29.696600 0.000000
        CHANNELS 3 Yrotation Xrotation Zrotation
        JOINT RightWrist
        {
         OFFSET 0.000000 -24.004700 0.000000
         CHANNELS 3 Yrotation Xrotation Zrotation
         End Site
         {
          OFFSET 0.000000 -17.728500 0.000000
         }
        }
       }
      }
     }
     JOINT LeftCollar
     {
      OFFSET 2.921100 9.558500 0.000000
      CHANNELS 3 Yrotation Xrotation Zrotation
      JOINT LeftShoulder
      {
       OFFSET 13.519700 0.000000 0.000000
       CHANNELS 3 Yrotation Xrotation Zrotation
       JOINT LeftElbow
       {
        OFFSET 0.000000 -29.696600 0.000000
        CHANNELS 3 Yrotation Xrotation Zrotation
        JOINT LeftWrist
        {
         OFFSET 0.000000 -24.004700 0.000000
         CHANNELS 3 Yrotation Xrotation Zrotation
         End Site
         {
          OFFSET 0.000000 -17.728500 0.000000
         }
        }
       }
      }
     }
    }
   }
  }
 }
 JOINT RightHip
 {
  OFFSET -7.771700 -0.012900 -0.001300
  CHANNELS 3 Yrotation Xrotation Zrotation
  JOINT RightKnee
  {
   OFFSET 0.000000 -40.869800 0.001200
   CHANNELS 3 Yrotation Xrotation Zrotation
   JOINT RightAnkle
   {
    OFFSET 0.000000 -39.717900 0.002100
    CHANNELS 3 Yrotation Xrotation Zrotation
    JOINT RightToe
    {
     OFFSET 0.000000 -4.965400 11.033500
     CHANNELS 3 Yrotation Xrotation Zrotation
     End Site
     {
      OFFSET 0.000000 -1.423100 5.872300
     }
    }
   }
  }
 }
 JOINT LeftHip
 {
  OFFSET 7.771700 -0.012900 -0.001300
  CHANNELS 3 Yrotation Xrotation Zrotation
  JOINT LeftKnee
  {
   OFFSET 0.000000 -40.869800 0.001200
   CHANNELS 3 Yrotation Xrotation Zrotation
   JOINT LeftAnkle
   {
    OFFSET 0.000000 -39.717900 0.002100
    CHANNELS 3 Yrotation Xrotation Zrotation
    JOINT LeftToe
    {
     OFFSET 0.000000 -4.965400 11.033500
     CHANNELS 3 Yrotation Xrotation Zrotation
     End Site
     {
      OFFSET 0.000000 -1.423100 5.872300
     }
    }
   }
  }
 }
}
MOTION
Frames: 14
Frame Time: 0.008333
0.000000 85.388000 0.000000 0.000000 -5.767877 0.000000 0.000000 11.653817 0.000000 0.000000 -5.885947 0.000000 0.000000 -0.000000 0.000000 0.000000 -0.000000 0.000000 0.000000 12.528835 0.000000 0.000000 0.711642 0.000000 0.000000 -0.000000 0.000000 0.000000 0.000000 -90.000000 0.000000 -2.309062 0.000000 0.000000 2.309062 0.000000 0.000000 -0.000000 0.000000 0.000000 -0.000000 90.000000 0.000000 -2.309062 0.000000 0.000000 2.309062 0.000000 0.000000 8.520406 0.000000 0.000000 1.905762 0.000000 -0.000000 -4.658285 0.000000 0.000000 -0.000000 0.000000 0.000000 8.520406 0.000000 0.000000 1.905762 0.000000 -0.000000 -4.658285 0.000000 0.000000 -0.000000 0.000000
-59.032206 48.682869 17.087062 173.986880 -27.822708 -0.624796 0.132810 12.327576 1.841736 -0.073127 7.062319 1.481438 -0.062970 8.793026 1.862984 -0.075010 7.037725 1.488214 -1.646672 18.796347 -1.671082 -2.555856 -0.855595 -2.440945 6.328909 3.997703 -3.793354 1.855597 -24.052543 -10.388791 36.060797 -52.661352 -22.484076 10.970040 10.598853 -35.635134 -3.831085 0.945380 -5.378117 5.323169 -26.157778 -0.309965 -59.696396 -38.428284 36.284162 -7.062739 12.318166 34.827729 23.082647 -54.551609 -28.713484 -105.981951 69.238891 -97.091288 1.588125 -3.777858 3.071856 0.149813 -0.936872 0.102474 -3.086125 -56.547916 12.753583 97.146467 82.932380 94.746268 -6.697483 -8.986341 -0.291756 0.310935 0.743393 0.138478
-59.033271 48.682865 17.085653 173.987088 -27.826576 -0.632272 0.137066 12.289745 1.853619 -0.077842 7.072442 1.483606 -0.066545 8.774927 1.866090 -0.078139 7.025347 1.491194 -1.683131 18.879708 -1.641033 -2.606023 -0.722165 -2.426025 6.328119 4.021202 -3.793238 1.872612 -24.084524 -10.379507 35.993847 -52.595782 -22.426139 10.986913 10.592319 -35.619371 -3.834660 0.921406 -5.370056 5.324843 -26.119702 -0.273348 -59.554299 -38.479847 36.110428 -6.983339 12.259466 34.887890 23.078658 -54.548379 -28.705125 -105.992479 69.248381 -97.093717 1.572791 -3.777017 3.065214 0.153664 -0.938099 0.099330 -3.096983 -56.543628 12.768818 97.176821 82.930849 94.774093 -6.700597 -8.991575 -0.288280 0.307065 0.745441 0.138093
-59.035814 48.682503 17.084509 173.984122 -27.828179 -0.630373 0.143996 12.273507 1.856874 -0.081569 7.028301 1.490102 -0.074179 8.772095 1.865084 -0.082769 7.024991 1.490460 -1.696358 18.951799 -1.637609 -2.678601 -0.565014 -2.372070 6.328414 4.046173 -3.788475 1.890903 -24.137292 -10.361983 35.939302 -52.508259 -22.366342 10.981453 10.584089 -35.599693 -3.834728 0.896625 -5.356333 5.330650 -26.079234 -0.233588 -59.432420 -38.527610 35.952001 -6.886207 12.201508 34.937337 23.084181 -54.546272 -28.706683 -105.989241 69.257029 -97.091846 1.568914 -3.774735 3.063124 0.156423 -0.938885 0.088855 -3.093602 -56.542092 12.769156 97.208924 82.926414 94.801112 -6.701601 -8.996344 -0.281892 0.303373 0.747999 0.136472
-59.038267 48.681523 17.084456 173.995716 -27.823702 -0.636131 0.135999 12.262962 1.858912 -0.083040 7.025136 1.490364 -0.076879 8.754723 1.865846 -0.087982 6.984937 1.494593 -1.724791 19.033282 -1.620478 -2.735552 -0.410208 -2.333775 6.308411 3.967669 -3.763007 1.937076 -24.030834 -10.375294 35.920367 -52.472044 -22.343488 10.946067 10.547760 -35.571402 -3.835687 0.869171 -5.337874 5.338916 -26.030636 -0.192064 -59.295346 -38.585431 35.777194 -6.800075 12.143037 34.987634 23.089031 -54.545925 -28.716577 -105.987820 69.264578 -97.082595 1.557120 -3.772625 3.051584 0.163412 -0.938261 0.093042 -3.109245 -56.546729 12.777728 97.209581 82.921707 94.793758 -6.713073 -8.997568 -0.276587 0.306971 0.751574 0.136973
-59.039765 48.680509 17.084391 174.001742 -27.822082 -0.643687 0.137204 12.237403 1.863516 -0.087674 7.011770 1.491997 -0.085074 8.723600 1.871823 -0.092066 6.984325 1.496401 -1.752996 19.117985 -1.608007 -2.791438 -0.252166 -2.293368 6.291672 3.931813 -3.748362 1.974672 -24.026336 -10.368123 35.848097 -52.379337 -22.257678 10.949224 10.523604 -35.558622 -3.836605 0.839889 -5.318984 5.345417 -25.967461 -0.149728 -59.146583 -38.653279 35.597432 -6.723299 12.084272 35.018387 23.094266 -54.546941 -28.716135 -105.990520 69.267928 -97.078491 1.545438 -3.769242 3.040668 0.168781 -0.938708 0.099355 -3.134378 -56.548627 12.800839 97.239681 82.913251 94.809142 -6.714357 -8.998559 -0.269896 0.298946 0.753318 0.136730
-59.039831 48.678434 17.086399 174.005678 -27.810143 -0.658006 0.138593 12.185188 1.877668 -0.090446 7.015742 1.494229 -0.098810 8.688368 1.877677 -0.096767 6.982677 1.497280 -1.808160 19.221639 -1.563704 -2.820117 -0.109630 -2.296903 6.280709 3.921071 -3.740908 2.001686 -24.046715 -10.358751 35.771232 -52.288257 -22.163047 10.969677 10.509753 -35.546860 -3.829458 0.863161 -5.320039 5.334600 -25.942509 -0.092298 -59.018289 -38.717908 35.449187 -6.627131 12.025550 35.014200 23.098721 -54.561050 -28.715119 -105.993678 69.289341 -97.069239 1.523130 -3.756915 3.021865 0.167560 -0.943768 0.112020 -3.199556 -56.562116 12.866333 97.329404 82.921686 94.871848 -6.713676 -8.993281 -0.263969 0.298753 0.749700 0.136339
-59.041288 48.676964 17.086769 174.010435 -27.810996 -0.660593 0.133720 12.180251 1.877994 -0.096398 6.982480 1.497407 -0.109759 8.667974 1.882250 -0.102234 6.968002 1.500043 -1.835380 19.310164 -1.549070 -2.874885 0.054898 -2.262776 6.285411 3.955335 -3.742238 2.007813 -24.091141 -10.346836 35.699424 -52.217313 -22.077976 10.967809 10.479265 -35.518267 -3.824323 0.811939 -5.296497 5.352718 -25.830892 -0.075122 -58.900338 -38.780702 35.314352 -6.530533 11.969370 35.004042 23.111110 -54.558436 -28.725013 -106.009207 69.294099 -97.073523 1.516905 -3.758973 3.002339 0.166874 -0.942011 0.118604 -3.218918 -56.563418 12.879325 97.373290 82.928368 94.906281 -6.706285 -8.990941 -0.259782 0.292757 0.748285 0.133774
-59.040670 48.675506 17.086954 174.013825 -27.817531 -0.671124 0.123826 12.159201 1.886208 -0.102148 6.967669 1.499814 -0.114892 8.652329 1.887737 -0.103271 6.972573 1.498850 -1.856572 19.376789 -1.537851 -2.941177 0.225039 -2.215411 6.271197 3.906255 -3.733153 2.033454 -24.075201 -10.344350 35.631102 -52.145597 -21.987665 10.922914 10.420567 -35.490851 -3.825237 0.741568 -5.266755 5.360176 -25.717903 -0.045312 -58.779965 -38.850123 35.194985 -6.421224 11.916165 34.980959 23.120650 -54.553907 -28.715447 -106.030933 69.287749 -97.077919 1.497288 -3.760353 2.969004 0.181671 -0.941223 0.136270 -3.239201 -56.558000 12.898633 97.402179 82.936163 94.932692 -6.694240 -8.996037 -0.257217 0.284723 0.753316 0.130699
-59.039789 48.673952 17.086748 174.026126 -27.829531 -0.682574 0.105749 12.130613 1.893996 -0.105659 6.968874 1.501838 -0.123120 8.634543 1.892641 -0.095388 7.013095 1.488495 -1.892985 19.410986 -1.505055 -3.000701 0.387705 -2.180997 6.247833 3.823032 -3.717113 2.058503 -24.064080 -10.341433 35.511450 -52.079657 -21.890342 10.957562 10.380520 -35.446676 -3.832025 0.666030 -5.233095 5.344595 -25.635257 0.006405 -58.679507 -38.910067 35.115215 -6.275429 11.862976 34.931371 23.100616 -54.544861 -28.698128 -106.049758 69.303413 -97.085006 1.487291 -3.771516 2.901354 0.177975 -0.936015 0.178241 -3.282041 -56.548529 12.926859 97.471865 82.941019 94.990121 -6.681061 -8.995310 -0.255205 0.277169 0.751850 0.127584
-59.038641 48.671407 17.087630 174.030313 -27.836901 -0.687047 0.099479 12.123482 1.897394 -0.123618 6.901369 1.514738 -0.115615 8.688468 1.881768 -0.120583 6.918928 1.514214 -1.927230 19.552889 -1.499193 -3.054466 0.537271 -2.159199 6.253302 3.874541 -3.720605 2.077233 -24.077258 -10.337169 35.446547 -52.012068 -21.822151 10.972113 10.359708 -35.418182 -3.809609 0.742172 -5.257683 5.316885 -25.596264 0.059621 -58.534678 -39.006695 34.980366 -6.172090 11.826678 34.903255 23.093289 -54.539660 -28.687125 -106.055828 69.325708 -97.084195 1.461132 -3.777817 2.886471 0.197154 -0.933598 0.140598 -3.312387 -56.545376 12.947210 97.541219 82.939613 95.049098 -6.667749 -8.990587 -0.255037 0.263809 0.747534 0.123785
-59.033194 48.667636 17.090455 174.024714 -27.836524 -0.707459 0.101085 12.075551 1.927174 -0.125851 6.911132 1.516345 -0.117923 8.698908 1.877980 -0.131748 6.865819 1.533810 -1.959983 19.646915 -1.491592 -3.121821 0.680742 -2.123951 6.244830 3.885938 -3.717184 2.102026 -24.087615 -10.339041 35.392135 -51.949602 -21.761283 10.944807 10.328377 -35.388705 -3.800294 0.777535 -5.270540 5.311529 -25.554145 0.076127 -58.422540 -39.082787 34.868682 -6.054741 11.797120 34.853188 23.093809 -54.555488 -28.639450 -106.066107 69.324977 -97.078746 1.396549 -3.772694 2.821409 0.240956 -0.933469 0.171773 -3.358432 -56.550521 13.002732 97.616772 82.941879 95.119090 -6.651467 -8.993541 -0.252198 0.241024 0.751367 0.114987
-59.029295 48.664453 17.090958 174.017555 -27.852322 -0.709531 0.103862 12.058389 1.940535 -0.128682 6.916559 1.515706 -0.132111 8.637222 1.899110 -0.126522 6.924528 1.512359 -1.993692 19.689171 -1.461214 -3.193722 0.814460 -2.088134 6.237646 3.882197 -3.713170 2.112054 -24.125627 -10.332040 35.364208 -51.886855 -21.713041 10.828275 10.256080 -35.385618 -3.807979 0.721569 -5.241248 5.293843 -25.464864 0.131274 -58.250205 -39.204381 34.725196 -5.941404 11.772619 34.773917 23.096221 -54.545008 -28.621506 -106.085723 69.344648 -97.084340 1.377062 -3.781004 2.764840 0.243548 -0.928155 0.186205 -3.377135 -56.540253 13.027140 97.730848 82.932335 95.221754 -6.635319 -8.995250 -0.247293 0.213993 0.748198 0.108865
-59.023290 48.661427 17.090573 174.022352 -27.877126 -0.721457 0.100189 12.069747 1.954722 -0.129775 6.920981 1.513984 -0.133226 8.633961 1.900511 -0.133836 6.863219 1.542189 -2.016998 19.766949 -1.478862 -3.284138 0.945198 -2.022421 6.231582 3.922914 -3.727843 2.120596 -24.154848 -10.325738 35.308346 -51.858291 -21.670870 10.785803 10.206748 -35.351772 -3.813741 0.712736 -5.233572 5.275031 -25.371860 0.185412 -58.074116 -39.340264 34.583689 -5.828712 11.751615 34.672543 23.079866 -54.527453 -28.595498 -106.145160 69.378263 -97.117388 1.335773 -3.799516 2.695370 0.249658 -0.921374 0.220386 -3.413316 -56.517013 13.064071 97.799991 82.931508 95.280331 -6.626530 -9.002462 -0.246463 0.223644 0.754946 0.105259
